<?xml version="1.0" standalone="no"?>
<!DOCTYPE svg PUBLIC "-//W3C//DTD SVG 20010904//EN"
 "http://www.w3.org/TR/2001/REC-SVG-20010904/DTD/svg10.dtd">
<svg version="1.0" xmlns="http://www.w3.org/2000/svg"
 width="500.000000pt" height="500.000000pt" viewBox="0 0 500.000000 500.000000"
 preserveAspectRatio="xMidYMid meet">

<g transform="translate(0.000000,500.000000) scale(0.100000,-0.100000)"
fill="#000000" stroke="none">
<path d="M0 2500 l0 -2500 2500 0 2500 0 0 2500 0 2500 -2500 0 -2500 0 0
-2500z m2520 1900 l0 -220 -25 0 -25 0 0 220 0 220 25 0 25 0 0 -220z m-867
-212 c97 -175 106 -194 90 -205 -9 -7 -19 -13 -22 -13 -3 0 -54 87 -113 192
-96 174 -105 193 -90 205 9 7 19 13 22 13 3 0 53 -87 113 -192z m1908 129 c14
-10 1 -35 -100 -199 -64 -103 -118 -188 -121 -188 -3 1 -13 7 -23 14 -16 13
-9 28 99 200 64 102 119 186 123 186 3 0 13 -6 22 -13z m-2557 -733 c102 -63
186 -119 186 -123 0 -5 -7 -14 -15 -21 -12 -10 -35 0 -132 61 -260 161 -255
157 -243 179 6 11 12 20 14 20 2 0 88 -52 190 -116z m3241 15 c4 -11 5 -22 3
-24 -1 -1 -87 -50 -191 -108 -184 -104 -187 -105 -202 -84 -8 11 -14 22 -12
23 9 8 383 214 389 214 4 0 10 -9 13 -21z m-2461 -222 l28 -38 32 45 c17 25
34 46 39 46 4 0 7 -31 7 -70 0 -63 -2 -70 -20 -70 -15 0 -20 7 -20 28 l0 27
-19 -28 -18 -28 -22 27 -21 27 0 -27 c0 -16 -5 -26 -15 -26 -12 0 -15 15 -15
72 0 40 4 68 8 63 4 -6 21 -27 36 -48z m230 -12 c30 -69 29 -88 -4 -67 -24 15
-60 16 -60 2 0 -5 -7 -10 -15 -10 -8 0 -15 2 -15 5 0 12 54 135 60 135 3 0 18
-29 34 -65z m156 30 c0 29 3 36 18 33 14 -3 18 -16 20 -71 2 -37 0 -67 -4 -67
-4 0 -27 16 -50 36 l-44 35 0 -35 c0 -25 -4 -36 -15 -36 -12 0 -15 15 -15 71
l0 70 45 -37 45 -36 0 37z m164 -30 c30 -69 29 -88 -4 -67 -24 15 -60 16 -60
2 0 -5 -7 -10 -15 -10 -8 0 -15 2 -15 5 0 12 54 135 60 135 3 0 18 -29 34 -65z
m166 47 c0 -13 -8 -17 -31 -17 -59 0 -66 -67 -8 -72 13 -1 18 0 12 3 -23 10
-14 34 13 34 23 0 25 -3 22 -32 -3 -30 -6 -33 -41 -36 -50 -4 -77 19 -77 65 0
44 30 73 75 73 27 0 35 -4 35 -18z m150 3 c0 -10 -10 -15 -30 -15 -16 0 -30
-4 -30 -10 0 -5 11 -10 25 -10 18 0 25 -5 25 -20 0 -15 -7 -20 -25 -20 -14 0
-25 -4 -25 -10 0 -5 14 -10 30 -10 20 0 30 -5 30 -15 0 -11 -12 -15 -50 -15
l-50 0 0 70 0 70 50 0 c38 0 50 -4 50 -15z m121 5 c20 -11 25 -45 10 -69 -6
-9 -4 -23 6 -38 14 -21 14 -23 -3 -23 -11 0 -25 9 -32 20 -7 11 -17 20 -22 20
-6 0 -10 -9 -10 -20 0 -11 -7 -20 -15 -20 -12 0 -15 14 -15 70 l0 70 31 0 c17
0 39 -5 50 -10z m229 -5 c0 -8 -9 -15 -20 -15 -18 0 -20 -7 -20 -55 0 -42 -3
-55 -15 -55 -12 0 -15 13 -15 55 0 42 -3 55 -15 55 -8 0 -15 7 -15 15 0 11 12
15 50 15 38 0 50 -4 50 -15z m132 -124 c-9 -2 -18 2 -20 8 -5 15 -37 14 -62
-1 -32 -20 -32 -4 1 68 l32 69 32 -70 c27 -59 30 -71 17 -74z m126 122 c2 -8
-6 -13 -22 -13 -33 0 -34 -17 -2 -31 53 -24 34 -83 -24 -77 -44 4 -53 28 -11
28 17 0 31 5 31 10 0 6 -4 10 -10 10 -13 0 -50 37 -50 49 0 34 77 54 88 24z
m72 -10 l1 -28 23 28 c14 17 31 28 41 25 16 -3 15 -6 -8 -34 l-26 -30 24 -30
c29 -35 31 -44 7 -44 -10 0 -25 11 -32 25 -7 14 -17 25 -22 25 -4 0 -8 -11 -8
-25 0 -16 -6 -25 -15 -25 -12 0 -15 14 -15 70 0 56 3 70 15 70 10 0 15 -10 15
-27z m-647 -348 c18 -17 11 -55 -9 -55 -8 0 -17 7 -20 15 -10 24 -40 17 -68
-16 -22 -26 -26 -40 -26 -98 0 -76 37 -469 46 -482 3 -5 16 -9 30 -9 38 0 28
-17 -21 -35 -48 -19 -105 -15 -124 9 -11 13 -32 153 -46 301 -9 85 -12 81 -82
-76 -64 -145 -67 -144 -155 26 l-67 130 -1 -70 c-2 -242 -48 -326 -174 -326
-67 0 -96 14 -96 46 0 36 18 40 49 11 56 -54 128 -26 150 59 13 53 34 350 26
375 -10 30 -39 42 -72 29 -43 -16 -73 -49 -73 -81 0 -23 4 -28 23 -28 13 0 28
5 34 11 7 7 15 5 27 -6 21 -21 20 -37 -2 -66 -41 -49 -132 -9 -132 58 0 42 31
93 72 121 31 20 55 26 116 30 101 5 116 -6 192 -157 32 -64 59 -111 59 -106 2
20 143 271 182 321 57 74 127 104 162 69z m471 -131 c17 -6 23 -64 7 -64 -5 0
-25 7 -44 15 -20 8 -52 15 -72 15 l-35 0 0 -245 c0 -232 -1 -246 -20 -265 -24
-24 -57 -26 -88 -4 -22 15 -22 18 -22 265 0 281 6 264 -81 234 -54 -19 -89
-51 -89 -81 0 -30 17 -39 46 -24 46 25 74 -30 34 -70 -46 -46 -130 -6 -130 63
0 67 63 127 159 153 47 13 307 19 335 8z m-2214 -299 l0 -25 -220 0 -220 0 0
25 0 25 220 0 220 0 0 -25z m3560 0 l0 -25 -225 0 -225 0 0 25 0 25 225 0 225
0 0 -25z m-3356 -762 c4 -9 1 -22 -6 -28 -18 -17 -356 -205 -368 -205 -5 0
-14 9 -19 19 -10 17 8 30 177 125 103 58 192 105 198 106 7 0 15 -8 18 -17z
m865 -24 c14 -41 14 -44 -4 -29 -12 10 -18 10 -30 0 -18 -15 -18 -12 -4 29 6
17 15 31 19 31 4 0 13 -14 19 -31z m104 9 l16 -23 0 23 c1 38 21 24 21 -15 l0
-36 -23 21 c-29 28 -35 27 -40 0 -3 -14 -5 -9 -6 15 -1 42 9 47 32 15z m95 15
c-10 -2 -18 -9 -18 -14 0 -5 8 -10 18 -10 16 -1 16 -2 0 -6 -10 -2 -18 -8 -18
-13 0 -5 8 -11 18 -13 10 -3 6 -5 -10 -6 -25 -1 -28 2 -28 34 0 32 3 35 28 34
16 -1 20 -3 10 -6z m52 -8 c0 -8 5 -15 11 -15 6 0 9 7 5 15 -3 8 -1 15 4 15 5
0 12 -10 16 -22 l7 -23 9 24 c13 37 20 19 7 -19 -11 -29 -13 -31 -24 -16 -12
15 -13 15 -19 -1 -6 -15 -9 -16 -15 -3 -17 30 -22 60 -12 60 6 0 11 -7 11 -15z
m189 -2 l21 21 0 -37 c0 -20 -4 -37 -10 -37 -5 0 -10 8 -10 18 0 14 -2 14 -9
3 -8 -12 -12 -12 -24 -2 -13 10 -16 9 -20 -6 -3 -10 -5 0 -6 22 0 40 0 40 18
18 l18 -22 22 22z m79 10 c-10 -2 -18 -9 -18 -14 0 -5 8 -10 18 -10 16 -1 16
-2 0 -6 -10 -2 -18 -8 -18 -13 0 -5 8 -11 18 -13 10 -3 6 -5 -10 -6 -25 -1
-28 2 -28 34 0 32 3 35 28 34 16 -1 20 -3 10 -6z m75 0 c-7 -2 -14 -19 -14
-36 l-2 -32 -4 30 c-3 16 -10 33 -16 37 -7 4 2 7 18 7 17 0 24 -3 18 -6z m47
-8 c0 -21 28 -19 33 3 3 9 5 -1 5 -23 0 -22 -2 -32 -5 -22 -5 21 -33 23 -33 2
0 -8 -4 -15 -10 -15 -5 0 -10 16 -10 35 0 19 5 35 10 35 6 0 10 -7 10 -15z
m135 -5 c14 -43 -44 -67 -68 -28 -8 12 -7 21 2 32 19 23 58 20 66 -4z m80 -15
c0 -25 -4 -30 -27 -33 -26 -3 -28 -1 -28 33 0 34 2 36 28 33 23 -3 27 -8 27
-33z m108 28 c-7 -2 -13 -18 -13 -34 0 -41 -17 -36 -22 6 -4 32 -2 35 22 34
14 0 19 -3 13 -6z m92 -13 c14 -43 -44 -67 -68 -28 -8 12 -7 21 2 32 19 23 58
20 66 -4z m922 -122 c82 -50 165 -102 186 -115 33 -21 36 -26 26 -44 -6 -13
-16 -18 -26 -15 -12 5 -348 211 -361 222 -4 3 17 44 23 44 3 0 71 -41 152 -92z
m-1746 -10 c-24 -8 -26 -38 -3 -46 7 -2 10 2 6 12 -4 11 -1 16 10 16 9 0 16
-8 16 -20 0 -27 -45 -27 -60 0 -8 16 -6 24 10 40 11 11 26 18 32 14 7 -5 3
-10 -11 -16z m386 -14 c8 -20 -15 -44 -43 -44 -32 0 -45 47 -19 66 20 15 52 3
62 -22z m-721 -31 c-4 -4 -11 -1 -16 7 -8 13 -10 12 -10 -2 0 -10 -4 -18 -10
-18 -5 0 -10 17 -10 37 l0 38 27 -27 c15 -15 24 -31 19 -35z m33 20 c0 -21 -3
-31 -6 -23 -3 8 -11 18 -16 22 -7 4 -6 12 2 22 19 23 21 20 20 -21z m70 6 c14
-41 14 -44 -4 -29 -12 10 -18 10 -30 0 -18 -15 -18 -12 -4 29 6 17 15 31 19
31 4 0 13 -14 19 -31z m64 9 l16 -23 0 23 c1 38 21 24 21 -15 l0 -36 -23 21
c-29 28 -35 27 -40 0 -3 -14 -5 -9 -6 15 -1 42 9 47 32 15z m102 -9 c9 -17 13
-34 9 -37 -4 -4 -9 -1 -11 6 -6 15 -33 16 -33 0 0 -6 -3 -8 -6 -5 -6 6 14 67
22 67 2 0 11 -14 19 -31z m153 24 c-10 -2 -18 -9 -18 -14 0 -5 8 -10 18 -10
16 -1 16 -2 0 -6 -25 -6 -22 -21 5 -26 16 -3 13 -5 -10 -6 -31 -1 -33 1 -33
34 0 32 3 35 28 34 16 -1 20 -3 10 -6z m84 -28 c4 -34 -5 -48 -15 -22 -4 9 -8
8 -16 -3 -8 -12 -11 -7 -11 23 0 30 4 37 19 37 14 0 20 -9 23 -35z m84 20 c6
-14 8 -13 20 2 17 23 18 14 2 -24 l-13 -30 -16 34 c-9 18 -12 33 -7 33 5 0 11
-7 14 -15z m164 -16 c0 -39 22 -34 32 7 6 27 6 27 5 -6 -3 -59 -56 -52 -57 8
0 12 5 22 10 22 6 0 10 -14 10 -31z m115 -6 c0 -33 -9 -43 -18 -20 -4 9 -8 8
-16 -3 -8 -12 -11 -7 -11 23 0 34 3 38 23 35 18 -2 22 -9 22 -35z m108 30 c-7
-2 -13 -18 -13 -34 0 -41 -17 -36 -22 6 -4 32 -2 35 22 34 14 0 19 -3 13 -6z
m77 -52 c0 -11 -3 -11 -15 -1 -12 10 -18 10 -30 0 -19 -16 -19 -7 1 32 l16 32
14 -25 c7 -13 13 -30 14 -38z m57 52 c-17 -4 -17 -6 -2 -23 20 -23 12 -40 -18
-39 -17 1 -18 2 -4 6 21 6 22 12 0 28 -20 15 -9 35 20 34 18 -1 19 -2 4 -6z
m57 -4 c4 6 12 11 18 11 6 0 6 -6 -2 -15 -10 -12 -10 -19 -2 -27 20 -20 13
-32 -7 -14 -18 17 -19 17 -24 -1 -3 -10 -5 0 -6 22 0 26 2 35 8 26 6 -9 11
-10 15 -2z m83 4 c-17 -4 -17 -6 -2 -23 20 -23 12 -40 -18 -39 -17 1 -18 2 -4
6 21 6 22 12 0 28 -20 15 -9 35 20 34 18 -1 19 -2 4 -6z m-1475 -425 c14 -11
1 -36 -101 -200 -121 -192 -121 -193 -159 -163 -5 5 229 375 237 375 4 0 14
-6 23 -12z m1779 -335 c39 -71 40 -72 19 -83 -12 -7 -23 -10 -25 -8 -8 9 -215
381 -213 383 2 1 12 7 23 13 20 11 28 -1 196 -305z m-941 -118 l0 -225 -25 0
-25 0 0 218 c0 120 3 222 7 225 3 4 15 7 25 7 17 0 18 -13 18 -225z"/>
<path d="M1970 3350 c0 -5 5 -10 11 -10 5 0 7 5 4 10 -3 6 -8 10 -11 10 -2 0
-4 -4 -4 -10z"/>
<path d="M2290 3350 c0 -5 5 -10 11 -10 5 0 7 5 4 10 -3 6 -8 10 -11 10 -2 0
-4 -4 -4 -10z"/>
<path d="M2720 3380 c0 -15 5 -20 18 -18 9 2 17 10 17 18 0 8 -8 16 -17 18
-13 2 -18 -3 -18 -18z"/>
<path d="M3075 3350 c-3 -5 -1 -10 4 -10 6 0 11 5 11 10 0 6 -2 10 -4 10 -3 0
-8 -4 -11 -10z"/>
<path d="M2732 1838 c2 -13 10 -23 18 -23 8 0 16 10 18 23 3 17 -2 22 -18 22
-16 0 -21 -5 -18 -22z"/>
<path d="M2820 1835 c0 -28 24 -34 34 -9 8 20 -1 34 -20 34 -8 0 -14 -10 -14
-25z"/>
<path d="M3012 1838 c2 -13 10 -23 18 -23 8 0 16 10 18 23 3 17 -2 22 -18 22
-16 0 -21 -5 -18 -22z"/>
<path d="M2566 1711 c-10 -16 5 -42 23 -39 21 4 21 42 -1 46 -9 2 -19 -1 -22
-7z"/>
<path d="M2380 1710 c0 -5 5 -10 10 -10 6 0 10 5 10 10 0 6 -4 10 -10 10 -5 0
-10 -4 -10 -10z"/>
<path d="M2740 1710 c0 -5 5 -10 10 -10 6 0 10 5 10 10 0 6 -4 10 -10 10 -5 0
-10 -4 -10 -10z"/>
</g>
</svg>
